<?xml version="1.0" encoding="UTF-8" standalone="no"?>
<svg width="13px" height="32px" viewBox="0 0 13 32" version="1.1" xmlns="http://www.w3.org/2000/svg" xmlns:xlink="http://www.w3.org/1999/xlink">
    <!-- Generator: Sketch 41.1 (35376) - http://www.bohemiancoding.com/sketch -->
    <title>Group 2</title>
    <desc>Created with Sketch.</desc>
    <defs>
        <rect id="path-1" x="0" y="0" width="14" height="36"></rect>
    </defs>
    <g id="Page-1" stroke="none" stroke-width="1" fill="none" fill-rule="evenodd">
        <g id="Detail" transform="translate(-1097.000000, -89.000000)">
            <g id="Group-2" transform="translate(1089.000000, 88.000000)">
                <path d="M15.2313405,24.9701077 C14.8137765,24.9701077 14.4975863,24.6201263 14.4975863,24.2363535 C14.4975863,23.8187895 14.8475678,23.5025993 15.2313405,23.5025993 L19.040104,23.5025993 L20.020052,14.9075381 L15.2337542,14.9075381 C14.8137765,14.9075381 14.5,14.5575566 14.5,14.1737839 C14.5,13.7562198 14.8499814,13.4400297 15.2337542,13.4400297 L20.1938359,13.4400297 L21,6.27627182 C21,5.50872633 20.3700334,4.84496844 19.566283,4.84496844 L15.2337542,4.84496844 L15.2337542,1.73375418 C15.2337542,1.31619012 14.8837727,1 14.5,1 C14.1162273,1 13.7662458,1.34998143 13.7662458,1.73375418 L13.7662458,4.84496844 L9.43371704,4.84496844 C8.66375789,4.84496844 8,5.47493502 8,6.27627182 L8.24378017,8.40753806 L14.989974,8.40753806 C15.4075381,8.40753806 15.7237282,8.75751949 15.7237282,9.14129224 C15.7237282,9.55885629 15.3737468,9.87504642 14.989974,9.87504642 L8.41997772,9.87504642 L9.39751207,18.4701077 L14.989974,18.4701077 C15.4075381,18.4701077 15.7237282,18.8200891 15.7237282,19.2038619 C15.7237282,19.6238396 15.3737468,19.937616 14.989974,19.937616 L9.53750464,19.937616 L10.3436688,27.1013739 C10.3436688,27.8689194 10.9736354,28.535091 11.7749722,28.535091 L13.7662458,28.535091 L13.7662458,31.6438916 C13.7662458,32.0638693 14.1162273,32.3776457 14.5,32.3776457 C14.8837727,32.3776457 15.2337542,32.0276643 15.2337542,31.6438916 L15.2337542,28.535091 L17.2250278,28.535091 C17.9925733,28.535091 18.6563312,27.9051244 18.6563312,27.1013739 L18.9001114,24.9701077 L15.2313405,24.9701077 Z" id="Combined-Shape" fill="#E3E3E3"></path>
                <g id="Group">
                    <mask id="mask-2" fill="white">
                        <use xlink:href="#path-1"></use>
                    </mask>
                    <g id="Rectangle-3"></g>
                    <path d="M15.2313405,24.9701077 C14.8137765,24.9701077 14.4975863,24.6201263 14.4975863,24.2363535 C14.4975863,23.8187895 14.8475678,23.5025993 15.2313405,23.5025993 L19.040104,23.5025993 L20.020052,14.9075381 L15.2337542,14.9075381 C14.8137765,14.9075381 14.5,14.5575566 14.5,14.1737839 C14.5,13.7562198 14.8499814,13.4400297 15.2337542,13.4400297 L20.1938359,13.4400297 L21,6.27627182 C21,5.50872633 20.3700334,4.84496844 19.566283,4.84496844 L15.2337542,4.84496844 L15.2337542,1.73375418 C15.2337542,1.31619012 14.8837727,1 14.5,1 C14.1162273,1 13.7662458,1.34998143 13.7662458,1.73375418 L13.7662458,4.84496844 L9.43371704,4.84496844 C8.66375789,4.84496844 8,5.47493502 8,6.27627182 L8.24378017,8.40753806 L14.989974,8.40753806 C15.4075381,8.40753806 15.7237282,8.75751949 15.7237282,9.14129224 C15.7237282,9.55885629 15.3737468,9.87504642 14.989974,9.87504642 L8.41997772,9.87504642 L9.39751207,18.4701077 L14.989974,18.4701077 C15.4075381,18.4701077 15.7237282,18.8200891 15.7237282,19.2038619 C15.7237282,19.6238396 15.3737468,19.937616 14.989974,19.937616 L9.53750464,19.937616 L10.3436688,27.1013739 C10.3436688,27.8689194 10.9736354,28.535091 11.7749722,28.535091 L13.7662458,28.535091 L13.7662458,31.6438916 C13.7662458,32.0638693 14.1162273,32.3776457 14.5,32.3776457 C14.8837727,32.3776457 15.2337542,32.0276643 15.2337542,31.6438916 L15.2337542,28.535091 L17.2250278,28.535091 C17.9925733,28.535091 18.6563312,27.9051244 18.6563312,27.1013739 L18.9001114,24.9701077 L15.2313405,24.9701077 Z" id="Combined-Shape" fill="#CF4E4E" mask="url(#mask-2)"></path>
                </g>
            </g>
        </g>
    </g>
</svg>