<?xml version="1.0" encoding="UTF-8" standalone="no"?>
<svg width="13px" height="32px" viewBox="0 0 13 32" version="1.1" xmlns="http://www.w3.org/2000/svg" xmlns:xlink="http://www.w3.org/1999/xlink">
    <!-- Generator: Sketch 41.1 (35376) - http://www.bohemiancoding.com/sketch -->
    <title>Fill 1</title>
    <desc>Created with Sketch.</desc>
    <defs></defs>
    <g id="Page-1" stroke="none" stroke-width="1" fill="none" fill-rule="evenodd">
        <g id="Detail" transform="translate(-1005.000000, -89.000000)" fill="#CF4E4E">
            <path d="M1012.23134,112.970108 C1011.81378,112.970108 1011.49759,112.620126 1011.49759,112.236354 C1011.49759,111.818789 1011.84757,111.502599 1012.23134,111.502599 L1016.0401,111.502599 L1017.02005,102.907538 L1012.23375,102.907538 C1011.81378,102.907538 1011.5,102.557557 1011.5,102.173784 C1011.5,101.75622 1011.84998,101.44003 1012.23375,101.44003 L1017.19384,101.44003 L1018,94.2762718 C1018,93.5087263 1017.37003,92.8449684 1016.56628,92.8449684 L1012.23375,92.8449684 L1012.23375,89.7337542 C1012.23375,89.3161901 1011.88377,89 1011.5,89 C1011.11623,89 1010.76625,89.3499814 1010.76625,89.7337542 L1010.76625,92.8449684 L1006.43372,92.8449684 C1005.66376,92.8449684 1005,93.474935 1005,94.2762718 L1005.24378,96.4075381 L1011.98997,96.4075381 C1012.40754,96.4075381 1012.72373,96.7575195 1012.72373,97.1412922 C1012.72373,97.5588563 1012.37375,97.8750464 1011.98997,97.8750464 L1005.41998,97.8750464 L1006.39751,106.470108 L1011.98997,106.470108 C1012.40754,106.470108 1012.72373,106.820089 1012.72373,107.203862 C1012.72373,107.62384 1012.37375,107.937616 1011.98997,107.937616 L1006.5375,107.937616 L1007.34367,115.101374 C1007.34367,115.868919 1007.97364,116.535091 1008.77497,116.535091 L1010.76625,116.535091 L1010.76625,119.643892 C1010.76625,120.063869 1011.11623,120.377646 1011.5,120.377646 C1011.88377,120.377646 1012.23375,120.027664 1012.23375,119.643892 L1012.23375,116.535091 L1014.22503,116.535091 C1014.99257,116.535091 1015.65633,115.905124 1015.65633,115.101374 L1015.90011,112.970108 L1012.23134,112.970108 Z" id="Fill-1"></path>
        </g>
    </g>
</svg>