<?xml version="1.0" encoding="utf-8"?>
<!-- Generator: Adobe Illustrator 20.1.0, SVG Export Plug-In . SVG Version: 6.00 Build 0)  -->
<svg version="1.1" id="Layer_1" xmlns="http://www.w3.org/2000/svg" xmlns:xlink="http://www.w3.org/1999/xlink" x="0px" y="0px"
	 width="16px" height="16px" viewBox="0 0 16 16" enable-background="new 0 0 16 16" xml:space="preserve">
<g id="Page-1">
	<g id="Detail" transform="translate(-998.000000, -298.000000)">
		<path id="Fill-1" fill="#215681" d="M1012.7,298.5h-13.3c-0.5,0-0.8,0.4-0.8,0.8v13.3c0,0.5,0.4,0.8,0.8,0.8h7.2v-5.8h-2v-2.3h2
			v-1.7c0-1.9,1.2-3,2.9-3c0.8,0,1.5,0.1,1.7,0.1v2l-1.2,0c-0.9,0-1.1,0.4-1.1,1.1v1.4h2.2l-0.3,2.3h-1.9v5.8h3.8
			c0.5,0,0.8-0.4,0.8-0.8v-13.3C1013.5,298.9,1013.1,298.5,1012.7,298.5"/>
	</g>
</g>
</svg>
