<?xml version="1.0" encoding="UTF-8" standalone="no"?>
<svg width="13px" height="32px" viewBox="0 0 13 32" version="1.1" xmlns="http://www.w3.org/2000/svg" xmlns:xlink="http://www.w3.org/1999/xlink">
    <!-- Generator: Sketch 41.1 (35376) - http://www.bohemiancoding.com/sketch -->
    <title>Combined Shape</title>
    <desc>Created with Sketch.</desc>
    <defs></defs>
    <g id="Page-1" stroke="none" stroke-width="1" fill="none" fill-rule="evenodd">
        <g id="Detail" transform="translate(-1097.000000, -89.000000)" fill="#E3E3E3">
            <path d="M1104.23134,112.970108 C1103.81378,112.970108 1103.49759,112.620126 1103.49759,112.236354 C1103.49759,111.818789 1103.84757,111.502599 1104.23134,111.502599 L1108.0401,111.502599 L1109.02005,102.907538 L1104.23375,102.907538 C1103.81378,102.907538 1103.5,102.557557 1103.5,102.173784 C1103.5,101.75622 1103.84998,101.44003 1104.23375,101.44003 L1109.19384,101.44003 L1110,94.2762718 C1110,93.5087263 1109.37003,92.8449684 1108.56628,92.8449684 L1104.23375,92.8449684 L1104.23375,89.7337542 C1104.23375,89.3161901 1103.88377,89 1103.5,89 C1103.11623,89 1102.76625,89.3499814 1102.76625,89.7337542 L1102.76625,92.8449684 L1098.43372,92.8449684 C1097.66376,92.8449684 1097,93.474935 1097,94.2762718 L1097.24378,96.4075381 L1103.98997,96.4075381 C1104.40754,96.4075381 1104.72373,96.7575195 1104.72373,97.1412922 C1104.72373,97.5588563 1104.37375,97.8750464 1103.98997,97.8750464 L1097.41998,97.8750464 L1098.39751,106.470108 L1103.98997,106.470108 C1104.40754,106.470108 1104.72373,106.820089 1104.72373,107.203862 C1104.72373,107.62384 1104.37375,107.937616 1103.98997,107.937616 L1098.5375,107.937616 L1099.34367,115.101374 C1099.34367,115.868919 1099.97364,116.535091 1100.77497,116.535091 L1102.76625,116.535091 L1102.76625,119.643892 C1102.76625,120.063869 1103.11623,120.377646 1103.5,120.377646 C1103.88377,120.377646 1104.23375,120.027664 1104.23375,119.643892 L1104.23375,116.535091 L1106.22503,116.535091 C1106.99257,116.535091 1107.65633,115.905124 1107.65633,115.101374 L1107.90011,112.970108 L1104.23134,112.970108 Z" id="Combined-Shape"></path>
        </g>
    </g>
</svg>