<?xml version="1.0" encoding="utf-8"?>
<!-- Generator: Adobe Illustrator 20.1.0, SVG Export Plug-In . SVG Version: 6.00 Build 0)  -->
<svg version="1.1" id="Layer_1" xmlns="http://www.w3.org/2000/svg" xmlns:xlink="http://www.w3.org/1999/xlink" x="0px" y="0px"
	 width="16px" height="16px" viewBox="0 0 16 16" enable-background="new 0 0 16 16" xml:space="preserve">
<g id="Page-1_1_">
	<g id="Detail" transform="translate(-998.000000, -266.000000)">
		<path id="Page-1" fill="#215681" d="M1009.3,275.5c0.1-0.5,0.1-1,0.1-1.5s0-1-0.1-1.5h2.5c0.1,0.5,0.2,1,0.2,1.5s-0.1,1-0.2,1.5
			H1009.3z M1007.9,279.7c0.4-0.8,0.8-1.7,1-2.7h2.2C1010.5,278.2,1009.3,279.2,1007.9,279.7L1007.9,279.7z M1007.8,275.5h-3.5
			c-0.1-0.5-0.1-1-0.1-1.5s0.1-1,0.1-1.5h3.5c0.1,0.5,0.1,1,0.1,1.5S1007.8,275,1007.8,275.5L1007.8,275.5z M1006,280
			c-0.6-0.9-1.1-1.9-1.4-3h2.9C1007.1,278.1,1006.6,279.1,1006,280L1006,280z M1003,271h-2.2c0.7-1.2,1.9-2.2,3.2-2.7
			C1003.6,269.2,1003.3,270.1,1003,271L1003,271z M1000.8,277h2.2c0.2,0.9,0.6,1.8,1,2.7C1002.7,279.2,1001.5,278.2,1000.8,277
			L1000.8,277z M1000.2,275.5c-0.1-0.5-0.2-1-0.2-1.5s0.1-1,0.2-1.5h2.5c-0.1,0.5-0.1,1-0.1,1.5s0,1,0.1,1.5H1000.2z M1006,268
			c0.6,0.9,1.1,1.9,1.4,3h-2.9C1004.9,269.9,1005.4,268.9,1006,268L1006,268z M1011.2,271h-2.2c-0.2-0.9-0.6-1.8-1-2.7
			C1009.3,268.8,1010.5,269.8,1011.2,271L1011.2,271z M1006,266.5c-4.1,0-7.5,3.4-7.5,7.5s3.4,7.5,7.5,7.5c4.1,0,7.5-3.4,7.5-7.5
			S1010.1,266.5,1006,266.5L1006,266.5z"/>
	</g>
</g>
</svg>
